<svg width="1371" height="267" fill="none" xmlns="http://www.w3.org/2000/svg"><path d="M116.5 113.359H27.766v72.563h103.078V208H.766V3.25h128.672v22.219H27.766V91.28H116.5v22.078Zm94.922-1.968 33.75-55.547h30.375l-49.781 75.234L277.094 208H247l-35.156-56.953L176.688 208h-30.235l51.328-76.922L148 55.844h30.094l33.328 55.547Zm220.359 22.218c0 23.157-5.297 41.813-15.89 55.969-10.594 14.156-24.938 21.234-43.032 21.234-18.468 0-33-5.859-43.593-17.578V266.5H303.25V55.844h23.766l1.265 16.875c10.594-13.125 25.313-19.688 44.157-19.688 18.281 0 32.718 6.89 43.312 20.672 10.688 13.781 16.031 32.953 16.031 57.516v2.39Zm-26.015-2.953c0-17.156-3.657-30.703-10.969-40.64-7.313-9.938-17.344-14.907-30.094-14.907-15.75 0-27.562 6.985-35.437 20.954v72.703c7.781 13.875 19.687 20.812 35.718 20.812 12.469 0 22.36-4.922 29.672-14.766 7.406-9.937 11.11-24.656 11.11-44.156Zm122.343 80.156c-20.625 0-37.406-6.75-50.343-20.25-12.938-13.593-19.407-31.734-19.407-54.421v-4.782c0-15.093 2.86-28.547 8.579-40.359 5.812-11.906 13.874-21.188 24.187-27.844 10.406-6.75 21.656-10.125 33.75-10.125 19.781 0 35.156 6.516 46.125 19.547 10.969 13.031 16.453 31.688 16.453 55.969v10.828H484.375c.375 15 4.734 27.141 13.078 36.422 8.438 9.187 19.125 13.781 32.063 13.781 9.187 0 16.968-1.875 23.343-5.625s11.953-8.719 16.735-14.906l15.89 12.375c-12.75 19.594-31.875 29.39-57.375 29.39Zm-3.234-136.406c-10.5 0-19.313 3.844-26.437 11.531-7.126 7.594-11.532 18.282-13.219 32.063h76.219v-1.969c-.75-13.219-4.313-23.437-10.688-30.656-6.375-7.313-15-10.969-25.875-10.969Zm166.359 4.781c-3.937-.656-8.203-.984-12.796-.984-17.063 0-28.641 7.266-34.735 21.797v108h-26.015V55.844H643l.422 17.578c8.531-13.594 20.625-20.39 36.281-20.39 5.063 0 8.906.656 11.531 1.968v24.188ZM743.547 208h-26.016V55.844h26.016V208ZM715.422 15.484c0-4.218 1.266-7.78 3.797-10.687 2.625-2.906 6.469-4.36 11.531-4.36s8.906 1.454 11.531 4.36c2.625 2.906 3.938 6.469 3.938 10.687 0 4.22-1.313 7.735-3.938 10.547-2.625 2.813-6.469 4.219-11.531 4.219s-8.906-1.406-11.531-4.219c-2.531-2.812-3.797-6.328-3.797-10.547Zm133.031 195.328c-20.625 0-37.406-6.75-50.344-20.25-12.937-13.593-19.406-31.734-19.406-54.421v-4.782c0-15.093 2.859-28.547 8.578-40.359 5.813-11.906 13.875-21.188 24.188-27.844 10.406-6.75 21.656-10.125 33.75-10.125 19.781 0 35.156 6.516 46.125 19.547 10.968 13.031 16.453 31.688 16.453 55.969v10.828H804.719c.375 15 4.734 27.141 13.078 36.422 8.437 9.187 19.125 13.781 32.062 13.781 9.188 0 16.969-1.875 23.344-5.625s11.953-8.719 16.735-14.906l15.89 12.375c-12.75 19.594-31.875 29.39-57.375 29.39Zm-3.234-136.406c-10.5 0-19.313 3.844-26.438 11.531-7.125 7.594-11.531 18.282-13.219 32.063h76.219v-1.969c-.75-13.219-4.312-23.437-10.687-30.656-6.375-7.313-15-10.969-25.875-10.969Zm117.422-18.562.843 19.125c11.625-14.625 26.813-21.938 45.566-21.938 32.15 0 48.37 18.14 48.65 54.422V208h-26.01V107.312c-.1-10.968-2.63-19.078-7.6-24.328-4.87-5.25-12.51-7.875-22.92-7.875-8.436 0-15.842 2.25-22.217 6.75-6.375 4.5-11.344 10.407-14.906 17.72V208h-26.016V55.844h24.61Zm195.329 133.734c9.28 0 17.39-2.812 24.33-8.437 6.93-5.625 10.78-12.657 11.53-21.094h24.61c-.47 8.719-3.47 17.015-9 24.891-5.53 7.874-12.94 14.156-22.22 18.843-9.19 4.688-18.94 7.031-29.25 7.031-20.72 0-37.22-6.89-49.5-20.671-12.19-13.875-18.28-32.813-18.28-56.813v-4.359c0-14.813 2.72-27.985 8.15-39.516 5.44-11.531 13.22-20.484 23.35-26.86 10.22-6.374 22.26-9.562 36.14-9.562 17.06 0 31.22 5.11 42.47 15.328 11.34 10.22 17.39 23.485 18.14 39.797h-24.61c-.75-9.844-4.5-17.906-11.25-24.187-6.66-6.375-14.91-9.563-24.75-9.563-13.22 0-23.49 4.781-30.8 14.344-7.22 9.469-10.83 23.203-10.83 41.203v4.922c0 17.531 3.61 31.031 10.83 40.5 7.22 9.469 17.53 14.203 30.94 14.203Zm152.86 21.234c-20.63 0-37.41-6.75-50.35-20.25-12.93-13.593-19.4-31.734-19.4-54.421v-4.782c0-15.093 2.86-28.547 8.58-40.359 5.81-11.906 13.87-21.188 24.18-27.844 10.41-6.75 21.66-10.125 33.75-10.125 19.79 0 35.16 6.516 46.13 19.547 10.97 13.031 16.45 31.688 16.45 55.969v10.828h-103.08c.38 15 4.74 27.141 13.08 36.422 8.44 9.187 19.13 13.781 32.06 13.781 9.19 0 16.97-1.875 23.35-5.625 6.37-3.75 11.95-8.719 16.73-14.906l15.89 12.375c-12.75 19.594-31.87 29.39-57.37 29.39Zm-3.24-136.406c-10.5 0-19.31 3.844-26.43 11.531-7.13 7.594-11.54 18.282-13.22 32.063h76.22v-1.969c-.75-13.219-4.32-23.437-10.69-30.656-6.38-7.313-15-10.969-25.88-10.969Z" fill="#000" fill-opacity=".06"/></svg>